<svg version="1.1" xmlns="http://www.w3.org/2000/svg" viewBox="0 0 1562.509168830586 699.8945834672588" width="3125.018337661172" height="1399.7891669345177">
  <!-- svg-source:excalidraw -->
  
  <defs>
    <style class="style-fonts">
      @font-face {
        font-family: "Virgil";
        src: url("https://excalidraw.com/Virgil.woff2");
      }
      @font-face {
        font-family: "Cascadia";
        src: url("https://excalidraw.com/Cascadia.woff2");
      }
    </style>
    
  </defs>
  <rect x="0" y="0" width="1562.509168830586" height="699.8945834672588" fill="#ffffff"></rect><g stroke-linecap="round" transform="translate(849.683716741886 21.2421875) rotate(0 58 36)"><path d="M45.53 0.54 C54.24 -1.1, 66.62 0.38, 75.83 2.24 C85.05 4.1, 94.48 7.48, 100.84 11.72 C107.19 15.96, 112.02 21.86, 113.98 27.71 C115.94 33.55, 115.46 40.88, 112.61 46.8 C109.75 52.72, 103.87 59.06, 96.84 63.23 C89.81 67.4, 79.66 70.74, 70.41 71.81 C61.17 72.89, 50.6 71.57, 41.39 69.67 C32.18 67.77, 21.69 64.58, 15.16 60.42 C8.63 56.26, 4.2 50.59, 2.21 44.71 C0.22 38.83, 0.26 30.98, 3.21 25.12 C6.16 19.25, 11.48 13.6, 19.91 9.52 C28.33 5.45, 47.04 2.22, 53.75 0.68 C60.47 -0.86, 60.13 -0.18, 60.19 0.29 M47.59 0.41 C56.49 -1.38, 66.69 -0.55, 75.95 1.38 C85.2 3.31, 96.77 7.47, 103.11 11.97 C109.45 16.48, 112.29 22.56, 113.98 28.39 C115.68 34.23, 116.04 41.08, 113.26 46.98 C110.48 52.88, 104.78 59.49, 97.28 63.78 C89.78 68.08, 77.81 71.51, 68.26 72.74 C58.71 73.97, 48.99 73.26, 39.98 71.17 C30.97 69.07, 20.8 64.87, 14.22 60.16 C7.65 55.45, 2.6 48.97, 0.53 42.9 C-1.54 36.84, -1.48 29.51, 1.81 23.77 C5.1 18.03, 12.58 12.5, 20.27 8.47 C27.96 4.43, 43.31 0.61, 47.96 -0.44 C52.61 -1.5, 48.05 1.57, 48.16 2.12" stroke="#1e1e1e" stroke-width="1" fill="none"></path></g><g transform="translate(875.111533503867 47.28634337728428) rotate(0 32.55998992919922 10)"><text x="32.55998992919922" y="0" font-family="Virgil, Segoe UI Emoji" font-size="16px" fill="#1e1e1e" text-anchor="middle" style="white-space: pre;" direction="ltr" dominant-baseline="text-before-edge">Ona, 80</text></g><g stroke-linecap="round" transform="translate(820.2290109995376 263.27845544521784) rotate(0 58.5 42.5)"><path d="M63.87 -0.3 C73.17 -0.35, 84.7 3.62, 92.76 7.97 C100.82 12.32, 108.24 19.35, 112.22 25.81 C116.21 32.26, 117.72 39.81, 116.68 46.69 C115.63 53.57, 111.53 61.21, 105.96 67.1 C100.38 72.98, 92.09 78.98, 83.24 81.99 C74.39 85.01, 62.7 86.14, 52.87 85.18 C43.04 84.22, 32.35 80.49, 24.27 76.23 C16.18 71.97, 8.22 65.97, 4.38 59.61 C0.54 53.25, 0.1 44.96, 1.23 38.07 C2.35 31.18, 5.68 24.09, 11.15 18.28 C16.61 12.46, 24.02 6.19, 34.02 3.19 C44.02 0.18, 64.12 0.19, 71.16 0.23 C78.19 0.28, 76.42 2.72, 76.23 3.46 M83.11 3.75 C91.97 5.84, 99.82 10.2, 105.4 15.86 C110.98 21.53, 115.49 30.47, 116.6 37.75 C117.71 45.03, 116.08 52.82, 112.04 59.53 C107.99 66.24, 100.02 73.91, 92.33 77.99 C84.65 82.08, 75.64 83.49, 65.95 84.04 C56.26 84.6, 43.51 84.22, 34.18 81.33 C24.86 78.45, 15.83 72.37, 10.01 66.72 C4.19 61.06, 0.12 54.22, -0.73 47.41 C-1.59 40.61, 0.69 32.67, 4.86 25.91 C9.03 19.15, 16.29 11.27, 24.3 6.86 C32.3 2.45, 43.02 0.01, 52.87 -0.55 C62.73 -1.1, 78.72 2.95, 83.41 3.54 C88.1 4.13, 81.73 2.12, 81.02 3" stroke="#1e1e1e" stroke-width="1" fill="none"></path></g><g transform="translate(846.273283221023 280.72641724478945) rotate(0 32.58998107910156 25)"><text x="32.58998107910156" y="0" font-family="Virgil, Segoe UI Emoji" font-size="20px" fill="#1e1e1e" text-anchor="middle" style="white-space: pre;" direction="ltr" dominant-baseline="text-before-edge">Gerda,</text><text x="32.58998107910156" y="25" font-family="Virgil, Segoe UI Emoji" font-size="20px" fill="#1e1e1e" text-anchor="middle" style="white-space: pre;" direction="ltr" dominant-baseline="text-before-edge"> 56</text></g><g stroke-linecap="round" transform="translate(985.914185491886 28.283812681399354) rotate(0 68.5 35.5)"><path d="M71.64 0.35 C82.57 0.05, 95.62 2.05, 105.24 5.13 C114.85 8.21, 123.99 13.47, 129.34 18.82 C134.69 24.16, 137.8 31.38, 137.33 37.2 C136.85 43.02, 132.63 48.7, 126.49 53.73 C120.35 58.76, 110.64 64.41, 100.49 67.37 C90.33 70.33, 76.88 71.83, 65.56 71.49 C54.23 71.16, 42.24 68.6, 32.53 65.34 C22.82 62.08, 12.68 57.11, 7.29 51.94 C1.9 46.77, -0.14 40.28, 0.19 34.3 C0.53 28.32, 3.39 20.98, 9.3 16.07 C15.2 11.15, 24.4 7.39, 35.64 4.81 C46.87 2.23, 68.9 1.29, 76.71 0.59 C84.52 -0.11, 82.77 0.15, 82.49 0.61 M39.62 3.04 C48.65 0.04, 61.2 0, 72.45 0.63 C83.7 1.26, 97.67 3.65, 107.13 6.8 C116.59 9.95, 124.3 14.39, 129.2 19.53 C134.11 24.67, 137.43 31.87, 136.54 37.65 C135.66 43.43, 130.36 49.38, 123.89 54.21 C117.41 59.05, 107.64 63.96, 97.69 66.66 C87.73 69.36, 75.48 70.59, 64.15 70.41 C52.83 70.22, 39.51 69.04, 29.72 65.56 C19.92 62.08, 10.21 55.21, 5.4 49.52 C0.58 43.83, -0.19 37.26, 0.81 31.41 C1.81 25.56, 5.13 19.1, 11.39 14.42 C17.65 9.75, 33.4 5.31, 38.35 3.37 C43.3 1.44, 40.54 2.45, 41.1 2.8" stroke="#1e1e1e" stroke-width="1" fill="none"></path></g><g transform="translate(1012.8293988736739 53.68152194927691) rotate(0 41.647972106933594 10)"><text x="41.647972106933594" y="0" font-family="Virgil, Segoe UI Emoji" font-size="16px" fill="#1e1e1e" text-anchor="middle" style="white-space: pre;" direction="ltr" dominant-baseline="text-before-edge">Petras, 81</text></g><g stroke-linecap="round" transform="translate(468.9291436653295 247.57564622777562) rotate(0 75 42.5)"><path d="M74.03 0.39 C85.02 -0.38, 98.83 1.96, 109.28 4.92 C119.73 7.88, 130.05 12.77, 136.75 18.15 C143.45 23.52, 147.99 30.73, 149.48 37.17 C150.97 43.6, 149.55 50.63, 145.71 56.74 C141.86 62.85, 134.85 69.41, 126.42 73.85 C117.99 78.29, 106.58 81.59, 95.12 83.37 C83.65 85.16, 69.09 86.1, 57.64 84.56 C46.19 83.02, 35.11 78.58, 26.44 74.14 C17.76 69.71, 9.83 63.8, 5.6 57.94 C1.37 52.08, -0.07 45.6, 1.07 38.99 C2.22 32.37, 6.19 23.72, 12.46 18.25 C18.73 12.78, 27.52 9.33, 38.67 6.18 C49.82 3.03, 71.6 0.25, 79.37 -0.66 C87.15 -1.57, 85.48 -0.15, 85.31 0.72 M42.85 3.59 C51.94 0.3, 64.13 0.77, 75.82 1.31 C87.52 1.84, 102.47 4.01, 113 6.79 C123.53 9.56, 132.93 12.64, 139 17.96 C145.08 23.29, 148.59 31.72, 149.46 38.75 C150.34 45.78, 148.92 53.92, 144.27 60.14 C139.62 66.36, 130.55 72.29, 121.58 76.07 C112.6 79.85, 101.69 81.71, 90.42 82.84 C79.15 83.96, 65.08 84.24, 53.97 82.82 C42.86 81.39, 31.9 78.55, 23.76 74.29 C15.62 70.02, 9.18 63.42, 5.16 57.25 C1.14 51.08, -2.03 43.74, -0.36 37.28 C1.3 30.82, 7.95 24.06, 15.15 18.48 C22.34 12.9, 38.07 6.06, 42.82 3.78 C47.57 1.51, 43.35 4.1, 43.66 4.83" stroke="#1e1e1e" stroke-width="1" fill="none"></path></g><g transform="translate(505.11615155583064 265.02360802734734) rotate(0 38.77998352050781 25)"><text x="38.77998352050781" y="0" font-family="Virgil, Segoe UI Emoji" font-size="20px" fill="#1e1e1e" text-anchor="middle" style="white-space: pre;" direction="ltr" dominant-baseline="text-before-edge">Janina, </text><text x="38.77998352050781" y="25" font-family="Virgil, Segoe UI Emoji" font-size="20px" fill="#1e1e1e" text-anchor="middle" style="white-space: pre;" direction="ltr" dominant-baseline="text-before-edge">50</text></g><g stroke-linecap="round" transform="translate(1248.4850040459191 382.1829936974653) rotate(0 64.99999999999994 42.49999999999997)"><path d="M47.34 1.54 C56.92 -0.76, 71.08 -0.15, 81.47 1.7 C91.86 3.56, 102.15 7.72, 109.68 12.67 C117.22 17.62, 123.7 24.71, 126.69 31.4 C129.69 38.1, 130.11 46.05, 127.65 52.86 C125.19 59.66, 119.42 66.96, 111.96 72.22 C104.5 77.49, 93.39 82.4, 82.9 84.44 C72.42 86.48, 59.57 86.54, 49.04 84.45 C38.52 82.37, 27.36 76.97, 19.74 71.93 C12.12 66.89, 6.18 60.96, 3.32 54.2 C0.46 47.43, 0.11 38.41, 2.57 31.34 C5.04 24.27, 10.15 16.64, 18.12 11.77 C26.09 6.9, 44.6 3.9, 50.38 2.14 C56.15 0.38, 52.63 0.8, 52.77 1.19 M35.33 4.3 C44.44 0.78, 59.44 -0.51, 70.53 0.18 C81.61 0.87, 93.18 4.64, 101.84 8.42 C110.5 12.2, 117.92 16.65, 122.5 22.86 C127.09 29.07, 129.81 38.32, 129.36 45.69 C128.91 53.06, 126.01 61.43, 119.81 67.08 C113.6 72.72, 101.92 76.58, 92.12 79.58 C82.31 82.57, 71.57 85.21, 60.97 85.03 C50.37 84.85, 37.45 82.69, 28.5 78.5 C19.56 74.31, 12.06 66.24, 7.31 59.9 C2.56 53.56, -0.62 47.13, -0.01 40.44 C0.59 33.76, 4.81 25.96, 10.94 19.78 C17.07 13.59, 32.6 5.78, 36.78 3.35 C40.96 0.92, 35.45 4.23, 36.01 5.17" stroke="#1e1e1e" stroke-width="1" fill="none"></path></g><g transform="translate(1274.8430858518013 404.6309554970371) rotate(0 38.67997741699213 20)"><text x="38.67997741699219" y="0" font-family="Virgil, Segoe UI Emoji" font-size="16px" fill="#1e1e1e" text-anchor="middle" style="white-space: pre;" direction="ltr" dominant-baseline="text-before-edge">Juozepas,</text><text x="38.67997741699219" y="20" font-family="Virgil, Segoe UI Emoji" font-size="16px" fill="#1e1e1e" text-anchor="middle" style="white-space: pre;" direction="ltr" dominant-baseline="text-before-edge">54</text></g><g stroke-linecap="round" transform="translate(834.589966741886 10) rotate(0 155.4609375 52.4296875)"><path d="M26.21 0 M26.21 0 C99.64 2.58, 171.77 0.01, 284.71 0 M26.21 0 C82.49 0.72, 138.37 1.66, 284.71 0 M284.71 0 C300.73 0.75, 311.48 9.27, 310.92 26.21 M284.71 0 C303.59 1.58, 308.72 10.27, 310.92 26.21 M310.92 26.21 C310.83 39.12, 312.67 50.12, 310.92 78.64 M310.92 26.21 C310.44 45.22, 309.86 63.77, 310.92 78.64 M310.92 78.64 C309.81 94.91, 303.04 105.51, 284.71 104.86 M310.92 78.64 C308.63 96.17, 304.08 104.32, 284.71 104.86 M284.71 104.86 C193.72 104.95, 103.02 105.55, 26.21 104.86 M284.71 104.86 C215.15 104.61, 146.81 105.17, 26.21 104.86 M26.21 104.86 C8.99 104.01, -1.97 94.73, 0 78.64 M26.21 104.86 C10.29 105.24, 0.66 95.07, 0 78.64 M0 78.64 C1.23 58.32, 1.39 34.85, 0 26.21 M0 78.64 C0.33 60.83, 0.07 42.08, 0 26.21 M0 26.21 C-1.63 8.08, 6.89 -0.4, 26.21 0 M0 26.21 C0.14 10.65, 9.89 -2.05, 26.21 0" stroke="#1e1e1e" stroke-width="1" fill="none"></path></g><g stroke-linecap="round"><g transform="translate(870.1341086169986 90.58984375) rotate(0 -134.16430808936593 82.48690866081526)"><path d="M0.59 0.88 C-43.93 28.12, -223.4 135.95, -268.11 163.1 M-0.56 0.3 C-45.12 27.77, -224.33 137.75, -268.92 164.68" stroke="#1e1e1e" stroke-width="1" fill="none"></path></g><g transform="translate(870.1341086169986 90.58984375) rotate(0 -134.16430808936593 82.48690866081526)"><path d="M-248.72 141.7 C-254.15 147.55, -257.02 149.95, -269.39 162.71 M-249.84 141.44 C-252.98 145.69, -256.87 150.54, -267.97 163.74" stroke="#1e1e1e" stroke-width="1" fill="none"></path></g><g transform="translate(870.1341086169986 90.58984375) rotate(0 -134.16430808936593 82.48690866081526)"><path d="M-238.04 159.22 C-245.71 161.37, -250.87 160.01, -269.39 162.71 M-239.16 158.96 C-244.5 159.57, -250.56 160.86, -267.97 163.74" stroke="#1e1e1e" stroke-width="1" fill="none"></path></g></g><mask></mask><g stroke-linecap="round"><g transform="translate(920.2193450741167 102.47265625) rotate(0 -6.255893766446832 80.89323780579939)"><path d="M-0.74 0.1 C-2.89 27.08, -11.56 134.44, -13.59 161.32 M1.07 -0.9 C-0.65 26.31, -8.89 135.44, -11.37 162.68" stroke="#1e1e1e" stroke-width="1" fill="none"></path></g><g transform="translate(920.2193450741167 102.47265625) rotate(0 -6.255893766446832 80.89323780579939)"><path d="M-19.13 132.16 C-18.05 140.36, -16.02 148.21, -9.92 162.11 M-18.77 134.43 C-15.77 143.9, -14.02 155.94, -10.97 163.45" stroke="#1e1e1e" stroke-width="1" fill="none"></path></g><g transform="translate(920.2193450741167 102.47265625) rotate(0 -6.255893766446832 80.89323780579939)"><path d="M1.32 133.84 C-2.56 141.5, -5.5 148.95, -9.92 162.11 M1.68 136.11 C-3.1 144.86, -9.13 156.26, -10.97 163.45" stroke="#1e1e1e" stroke-width="1" fill="none"></path></g></g><mask></mask><g stroke-linecap="round"><g transform="translate(945.4635076100334 96.7890625) rotate(0 167.9674184373972 139.69380601713462)"><path d="M1.07 0.03 C56.89 46.56, 280.11 232.71, 335.77 279.16 M0.17 -1 C55.78 45.68, 279.33 233.64, 334.98 280.39" stroke="#1e1e1e" stroke-width="1" fill="none"></path></g><g transform="translate(945.4635076100334 96.7890625) rotate(0 167.9674184373972 139.69380601713462)"><path d="M306.84 270.6 C316.28 272.93, 325.98 277.74, 335.24 281.8 M306.55 269.26 C315.64 274.24, 323.99 277.08, 335.94 279.85" stroke="#1e1e1e" stroke-width="1" fill="none"></path></g><g transform="translate(945.4635076100334 96.7890625) rotate(0 167.9674184373972 139.69380601713462)"><path d="M320.05 254.89 C324.58 263.16, 329.39 273.81, 335.24 281.8 M319.75 253.55 C324.75 263.6, 328.88 271.46, 335.94 279.85" stroke="#1e1e1e" stroke-width="1" fill="none"></path></g></g><mask></mask><g stroke-linecap="round" transform="translate(1422.509168830586 73.63192161091828) rotate(0 65 42.5)"><path d="M93.5 4.4 C103 6.77, 112.27 12.33, 118.35 17.98 C124.43 23.63, 129.08 31.21, 130 38.32 C130.92 45.43, 128.44 54.25, 123.87 60.65 C119.31 67.06, 111.55 72.63, 102.61 76.75 C93.66 80.87, 80.96 84.6, 70.19 85.38 C59.42 86.16, 47.84 84.44, 37.98 81.43 C28.12 78.43, 17.48 73.13, 11.04 67.34 C4.59 61.55, 0.09 53.89, -0.67 46.69 C-1.42 39.49, 1.62 30.61, 6.5 24.12 C11.39 17.63, 19.84 11.69, 28.65 7.75 C37.46 3.8, 48.09 0.79, 59.36 0.48 C70.62 0.17, 89.6 4.68, 96.25 5.9 C102.9 7.12, 99.63 7.22, 99.26 7.79 M52.05 0.19 C62.04 -1.51, 76.71 1.25, 87 3.93 C97.29 6.61, 106.94 11.16, 113.8 16.26 C120.66 21.35, 126.24 27.55, 128.15 34.49 C130.06 41.44, 128.59 51.4, 125.26 57.93 C121.94 64.47, 116.48 69.49, 108.2 73.69 C99.93 77.89, 86.53 81.81, 75.59 83.13 C64.65 84.45, 52.75 83.96, 42.56 81.58 C32.37 79.21, 21.42 74.38, 14.45 68.9 C7.48 63.42, 2.49 55.46, 0.74 48.71 C-1.01 41.96, 0.25 34.67, 3.94 28.42 C7.64 22.16, 14.75 15.71, 22.91 11.16 C31.07 6.61, 47.55 2.88, 52.9 1.14 C58.26 -0.6, 54.56 0.01, 55.04 0.72" stroke="#1e1e1e" stroke-width="1" fill="none"></path></g><g transform="translate(1448.7552511247495 106.07988341049) rotate(0 38.79197692871094 10)"><text x="38.79197692871094" y="0" font-family="Virgil, Segoe UI Emoji" font-size="16px" fill="#1e1e1e" text-anchor="middle" style="white-space: pre;" direction="ltr" dominant-baseline="text-before-edge">Jonas, 59</text></g><g stroke-linecap="round"><g transform="translate(957.3332470955622 88.25519092902567) rotate(0 226.64035112640386 4.104171980165262)"><path d="M0.12 -0.75 C75.75 0.88, 378.9 7.69, 454.56 8.96 M-1.28 1.46 C74.19 2.86, 378.24 6.34, 454.03 7.36" stroke="#1e1e1e" stroke-width="1" fill="none"></path></g><g transform="translate(957.3332470955622 88.25519092902567) rotate(0 226.64035112640386 4.104171980165262)"><path d="M424.46 18.6 C437.78 14.15, 444.63 11.33, 454.1 7.52 M425.38 16.33 C436.67 13.1, 447.32 9.93, 454.5 7.38" stroke="#1e1e1e" stroke-width="1" fill="none"></path></g><g transform="translate(957.3332470955622 88.25519092902567) rotate(0 226.64035112640386 4.104171980165262)"><path d="M424.71 -1.92 C437.8 1.12, 444.55 5.79, 454.1 7.52 M425.64 -4.19 C436.99 0.68, 447.53 5.6, 454.5 7.38" stroke="#1e1e1e" stroke-width="1" fill="none"></path></g></g><mask></mask><g stroke-linecap="round" transform="translate(283.2575644399939 248.65945566119854) rotate(0 75 42.5)"><path d="M97.18 1.06 C108.06 2.21, 119.37 7.63, 127.54 12.25 C135.72 16.88, 142.53 22.49, 146.23 28.82 C149.93 35.14, 151.83 43.55, 149.75 50.21 C147.67 56.88, 141.04 63.75, 133.73 68.79 C126.43 73.83, 116.32 77.87, 105.92 80.44 C95.52 83.01, 83.04 84.53, 71.33 84.2 C59.63 83.87, 45.68 81.87, 35.71 78.48 C25.75 75.08, 17.63 69.2, 11.55 63.85 C5.46 58.5, 0.22 52.79, -0.79 46.38 C-1.8 39.97, 0.7 31.44, 5.48 25.41 C10.27 19.38, 18.67 14.19, 27.94 10.19 C37.22 6.18, 49.08 2.66, 61.13 1.37 C73.18 0.08, 93.34 1.95, 100.22 2.46 C107.1 2.98, 102.68 3.88, 102.42 4.46 M74.89 0.21 C86.18 -0.78, 99.22 1.01, 109.64 3.91 C120.07 6.81, 130.64 11.94, 137.45 17.59 C144.26 23.23, 149.21 31.09, 150.52 37.78 C151.83 44.47, 149.71 51.9, 145.28 57.73 C140.86 63.55, 132.55 68.34, 123.97 72.73 C115.38 77.11, 104.81 82.31, 93.77 84.05 C82.73 85.8, 69.29 85, 57.73 83.19 C46.17 81.39, 33.37 77.4, 24.4 73.23 C15.43 69.07, 8.04 64.33, 3.92 58.2 C-0.2 52.08, -2.03 42.97, -0.32 36.47 C1.38 29.97, 7.59 24.42, 14.14 19.22 C20.7 14.02, 28.91 8.56, 39.01 5.25 C49.1 1.94, 68.65 -0.04, 74.7 -0.65 C80.75 -1.26, 75.6 0.69, 75.29 1.59" stroke="#1e1e1e" stroke-width="1" fill="none"></path></g><g transform="translate(317.26459491350283 266.10741746077025) rotate(0 40.9599609375 25)"><text x="40.9599609375" y="0" font-family="Virgil, Segoe UI Emoji" font-size="20px" fill="#1e1e1e" text-anchor="middle" style="white-space: pre;" direction="ltr" dominant-baseline="text-before-edge">Alesius, </text><text x="40.9599609375" y="25" font-family="Virgil, Segoe UI Emoji" font-size="20px" fill="#1e1e1e" text-anchor="middle" style="white-space: pre;" direction="ltr" dominant-baseline="text-before-edge">52</text></g><g stroke-linecap="round" transform="translate(266.7468143028611 207.64870040519753) rotate(0 195.64336815183313 81.4773669949511)"><path d="M32 0 M32 0 C120.02 0.23, 211.95 0.16, 359.29 0 M32 0 C137.84 -0.8, 242.98 -1.64, 359.29 0 M359.29 0 C380.83 -0.8, 392.33 11.32, 391.29 32 M359.29 0 C382.83 -0.09, 389.46 11.41, 391.29 32 M391.29 32 C390.33 70.31, 391.11 108.62, 391.29 130.95 M391.29 32 C391.96 54.86, 392.47 77.76, 391.29 130.95 M391.29 130.95 C389.85 151.53, 381.14 164.78, 359.29 162.95 M391.29 130.95 C390.32 150.23, 381.58 162.34, 359.29 162.95 M359.29 162.95 C286.09 162.38, 209.96 161.16, 32 162.95 M359.29 162.95 C254.49 162.41, 150.69 162, 32 162.95 M32 162.95 C12.49 164.25, -1.85 153.89, 0 130.95 M32 162.95 C11.6 160.73, -1.58 152.9, 0 130.95 M0 130.95 C1.48 100.68, 1.51 69.08, 0 32 M0 130.95 C0.56 99.39, 0.83 67.78, 0 32 M0 32 C-0.26 8.75, 10.28 -0.77, 32 0 M0 32 C-1.11 10.37, 9.52 1.76, 32 0" stroke="#1e1e1e" stroke-width="1" fill="none"></path></g><g stroke-linecap="round" transform="translate(245.4672501889807 434.7229779080993) rotate(0 88.59836879625828 36.066988831885226)"><path d="M103.88 -0.14 C116.06 0.26, 129.95 3.71, 140.26 6.94 C150.57 10.16, 159.47 14.53, 165.75 19.23 C172.03 23.94, 177.37 30.09, 177.97 35.16 C178.57 40.23, 174.61 45.12, 169.34 49.67 C164.07 54.21, 156.04 58.86, 146.37 62.42 C136.7 65.99, 123.69 69.59, 111.31 71.05 C98.94 72.52, 84.5 72.14, 72.12 71.23 C59.74 70.31, 47.4 68.56, 37.03 65.55 C26.66 62.55, 15.96 57.75, 9.9 53.2 C3.84 48.65, 1.11 43.32, 0.69 38.25 C0.27 33.18, 2.25 27.68, 7.38 22.8 C12.5 17.92, 21.82 12.46, 31.42 8.96 C41.02 5.47, 51.03 2.87, 64.98 1.84 C78.93 0.8, 104.9 2.4, 115.14 2.76 C125.37 3.13, 126.56 3.66, 126.4 4.03 M111.27 0.8 C123.72 1.52, 137.69 4.71, 147.35 8.16 C157.01 11.62, 164.01 16.65, 169.23 21.54 C174.44 26.44, 179.03 32.45, 178.62 37.54 C178.21 42.64, 173.03 47.7, 166.77 52.1 C160.52 56.51, 151.45 60.88, 141.11 63.99 C130.77 67.1, 117.12 69.41, 104.75 70.75 C92.38 72.1, 79.3 73.47, 66.89 72.06 C54.48 70.66, 40.26 65.75, 30.29 62.33 C20.33 58.91, 12.09 55.87, 7.1 51.54 C2.12 47.2, -0.37 41.52, 0.38 36.31 C1.13 31.11, 5.8 25.37, 11.59 20.29 C17.39 15.21, 25.38 9.33, 35.17 5.82 C44.96 2.32, 57.7 0.26, 70.32 -0.73 C82.94 -1.73, 104.15 -0.53, 110.91 -0.16 C117.67 0.22, 111.22 0.61, 110.9 1.5" stroke="#1e1e1e" stroke-width="1" fill="none"></path></g><g transform="translate(289.41313669278736 460.786754359979) rotate(0 44.50397491455078 10)"><text x="44.50397491455078" y="0" font-family="Virgil, Segoe UI Emoji" font-size="16px" fill="#1e1e1e" text-anchor="middle" style="white-space: pre;" direction="ltr" dominant-baseline="text-before-edge">Itanas, 24</text></g><g stroke-linecap="round"><g transform="translate(529.6623019568726 333.2978628584374) rotate(0 -86.81624213297347 44.711452458554135)"><path d="M-0.9 -0.9 C-29.79 13.99, -145.06 74.15, -174.11 89.07 M0.83 1.25 C-28.05 16.32, -145 75.61, -174.46 90.32" stroke="#1e1e1e" stroke-width="1" fill="none"></path></g><g transform="translate(529.6623019568726 333.2978628584374) rotate(0 -86.81624213297347 44.711452458554135)"><path d="M-155.4 70.36 C-159.69 73.5, -165.19 79.33, -174.55 90.41 M-153.33 67.59 C-159.17 74.25, -162.9 77.94, -174.46 89.63" stroke="#1e1e1e" stroke-width="1" fill="none"></path></g><g transform="translate(529.6623019568726 333.2978628584374) rotate(0 -86.81624213297347 44.711452458554135)"><path d="M-146.16 88.68 C-152.58 87.47, -160.24 89.01, -174.55 90.41 M-144.1 85.92 C-152.08 88.36, -157.94 87.83, -174.46 89.63" stroke="#1e1e1e" stroke-width="1" fill="none"></path></g></g><mask></mask><g stroke-linecap="round" transform="translate(1090.0872099207495 383.88291921082646) rotate(0 65 42.5)"><path d="M70.38 -0.01 C80.74 0.13, 94.57 3.72, 103.39 7.73 C112.2 11.74, 119 17.75, 123.28 24.07 C127.56 30.39, 129.92 38.49, 129.07 45.63 C128.21 52.77, 124.44 61.06, 118.17 66.91 C111.89 72.76, 101.14 77.61, 91.4 80.75 C81.67 83.89, 70.48 86.17, 59.77 85.72 C49.07 85.27, 36.2 82.38, 27.17 78.05 C18.15 73.73, 10.22 66.27, 5.63 59.79 C1.03 53.3, -1.47 46.24, -0.4 39.15 C0.67 32.06, 5.55 23.2, 12.05 17.24 C18.56 11.28, 27.34 6.16, 38.63 3.4 C49.92 0.64, 71.28 0.47, 79.79 0.67 C88.3 0.88, 89.77 3.91, 89.69 4.64 M43.47 1.76 C53.18 -0.96, 68.17 0.35, 79.02 2.02 C89.86 3.69, 100.43 7.27, 108.53 11.76 C116.63 16.26, 124.29 22.64, 127.61 28.97 C130.93 35.29, 130.62 42.55, 128.43 49.7 C126.24 56.85, 121.62 66.38, 114.45 71.87 C107.27 77.36, 95.71 80.74, 85.39 82.65 C75.08 84.55, 63.19 84.91, 52.57 83.3 C41.95 81.68, 29.8 77.31, 21.67 72.93 C13.54 68.55, 7.22 63.25, 3.77 57.01 C0.32 50.77, -0.97 42.84, 0.98 35.5 C2.93 28.16, 8.44 18.74, 15.5 12.98 C22.55 7.22, 38.64 2.62, 43.3 0.94 C47.96 -0.75, 42.81 2.18, 43.44 2.89" stroke="#1e1e1e" stroke-width="1" fill="none"></path></g><g transform="translate(1114.3412878203817 406.3308810103982) rotate(0 40.78398132324219 19.99999999999997)"><text x="40.78398132324219" y="0" font-family="Virgil, Segoe UI Emoji" font-size="16px" fill="#1e1e1e" text-anchor="middle" style="white-space: pre;" direction="ltr" dominant-baseline="text-before-edge">Juozapina,</text><text x="40.78398132324219" y="20" font-family="Virgil, Segoe UI Emoji" font-size="16px" fill="#1e1e1e" text-anchor="middle" style="white-space: pre;" direction="ltr" dominant-baseline="text-before-edge">53</text></g><g stroke-linecap="round" transform="translate(1054.0011397661544 342.38806744073474) rotate(0 184.73494584402897 76.66015886014287)"><path d="M32 0 M32 0 C145.54 0.78, 258.65 -0.46, 337.47 0 M32 0 C117.78 -1.96, 203.34 -2.33, 337.47 0 M337.47 0 C360.75 1.62, 367.58 8.99, 369.47 32 M337.47 0 C358.1 0.12, 370.28 12.9, 369.47 32 M369.47 32 C371.19 65.42, 368.86 101.99, 369.47 121.32 M369.47 32 C368.96 49.97, 367.97 67.96, 369.47 121.32 M369.47 121.32 C368.67 141.42, 358.75 151.44, 337.47 153.32 M369.47 121.32 C367.74 143.49, 358.34 152.07, 337.47 153.32 M337.47 153.32 C218.58 150.99, 97.46 152.06, 32 153.32 M337.47 153.32 C257.46 151.23, 177.71 152, 32 153.32 M32 153.32 C9.2 152.01, -0.1 144.57, 0 121.32 M32 153.32 C11.16 153.62, 0.47 143.54, 0 121.32 M0 121.32 C1.43 88.5, -0.77 59.59, 0 32 M0 121.32 C0.13 95.83, 0.88 71.24, 0 32 M0 32 C0.91 12.06, 12.05 -1.29, 32 0 M0 32 C-0.41 12, 9.75 2.06, 32 0" stroke="#1e1e1e" stroke-width="1" fill="none"></path></g><g stroke-linecap="round" transform="translate(27.005741941046722 434.5194625665358) rotate(0 88.59836879625828 36.066988831885226)"><path d="M59.72 1.86 C70.79 -0.27, 85.63 0.22, 98.3 0.86 C110.96 1.5, 124.85 3.14, 135.72 5.68 C146.59 8.22, 156.73 11.85, 163.5 16.11 C170.27 20.37, 174.79 25.96, 176.35 31.26 C177.9 36.55, 177.13 42.77, 172.82 47.88 C168.51 52.98, 159.74 58.05, 150.47 61.9 C141.2 65.75, 129.11 69.3, 117.21 70.95 C105.32 72.6, 91.88 72.52, 79.12 71.79 C66.37 71.06, 51.56 69.23, 40.69 66.54 C29.81 63.86, 20.61 60.16, 13.87 55.69 C7.13 51.23, 1.81 45.08, 0.26 39.75 C-1.29 34.42, 0.32 28.61, 4.56 23.73 C8.8 18.85, 15.42 14.08, 25.7 10.46 C35.97 6.85, 58.17 3.74, 66.22 2.05 C74.28 0.35, 73.64 -0.22, 74.05 0.31 M116.63 2.43 C128.34 3.79, 141.87 8.05, 150.87 11.51 C159.88 14.96, 166.28 18.4, 170.67 23.16 C175.05 27.92, 178.53 34.53, 177.18 40.06 C175.84 45.59, 169.27 52.17, 162.59 56.33 C155.91 60.49, 147.56 62.22, 137.09 65.03 C126.63 67.84, 112.9 72.35, 99.79 73.19 C86.68 74.02, 70.68 71.79, 58.44 70.07 C46.21 68.35, 35.15 66.63, 26.37 62.85 C17.59 59.07, 10.21 52.64, 5.78 47.38 C1.35 42.13, -1.65 36.47, -0.19 31.3 C1.28 26.13, 7.49 20.53, 14.57 16.33 C21.66 12.13, 31.44 8.76, 42.3 6.1 C53.17 3.45, 67.03 0.9, 79.76 0.41 C92.48 -0.08, 112.62 2.69, 118.64 3.16 C124.66 3.64, 116.44 2.72, 115.89 3.29" stroke="#1e1e1e" stroke-width="1" fill="none"></path></g><g transform="translate(79.19962191409167 460.5832390184155) rotate(0 36.2559814453125 10)"><text x="36.2559814453125" y="0" font-family="Virgil, Segoe UI Emoji" font-size="16px" fill="#1e1e1e" text-anchor="middle" style="white-space: pre;" direction="ltr" dominant-baseline="text-before-edge">Rūta, 26</text></g><g stroke-linecap="round" transform="translate(10 407.10187575109956) rotate(0 217.4927752220915 60.04516637489786)"><path d="M30.02 0 M30.02 0 C106.94 1.54, 184.82 2.71, 404.96 0 M30.02 0 C153.99 1.52, 277.12 1.17, 404.96 0 M404.96 0 C423.95 0.77, 434.37 9.16, 434.99 30.02 M404.96 0 C425.37 0.45, 432.89 11.88, 434.99 30.02 M434.99 30.02 C435.14 48.99, 433.92 68.44, 434.99 90.07 M434.99 30.02 C435.75 41.87, 435.1 55.02, 434.99 90.07 M434.99 90.07 C436.85 108.6, 425.56 121.78, 404.96 120.09 M434.99 90.07 C436.61 109.55, 427.24 117.93, 404.96 120.09 M404.96 120.09 C330 118.42, 252.73 117.54, 30.02 120.09 M404.96 120.09 C290.52 121.76, 177.05 121.98, 30.02 120.09 M30.02 120.09 C11.95 120.69, -0.14 111.85, 0 90.07 M30.02 120.09 C12.27 120.43, -1.32 108.37, 0 90.07 M0 90.07 C0.3 72.5, 1.04 53.52, 0 30.02 M0 90.07 C1.28 68.77, -0.55 45.96, 0 30.02 M0 30.02 C1.52 11.95, 11.97 -1.67, 30.02 0 M0 30.02 C-0.31 10.14, 10.09 -0.93, 30.02 0" stroke="#1e1e1e" stroke-width="1" fill="none"></path></g><g stroke-linecap="round" transform="translate(102.70123808217869 614.5043603384723) rotate(0 93.05738992991482 37.695111564393244)"><path d="M61.71 2.35 C73.37 -0.01, 91.06 -0.49, 104.55 0.25 C118.04 0.98, 131.47 3.8, 142.67 6.78 C153.87 9.75, 164.45 13.56, 171.74 18.1 C179.03 22.64, 184.97 28.69, 186.41 34 C187.84 39.31, 184.97 44.9, 180.36 49.97 C175.76 55.03, 168.34 60.59, 158.77 64.4 C149.21 68.21, 135.85 71.05, 122.99 72.85 C110.13 74.66, 94.77 75.75, 81.61 75.2 C68.44 74.66, 55.16 72.6, 43.98 69.57 C32.8 66.53, 21.84 61.45, 14.52 57 C7.2 52.54, 1.71 48.19, 0.06 42.82 C-1.59 37.45, 0 30.25, 4.63 24.8 C9.26 19.34, 17.67 14.08, 27.82 10.09 C37.97 6.09, 58.65 2.03, 65.54 0.81 C72.43 -0.41, 68.88 1.87, 69.15 2.78 M94.5 0.99 C107.07 0.24, 121.27 0.93, 133.44 2.97 C145.6 5.01, 159.25 9.02, 167.5 13.23 C175.75 17.44, 180.06 22.87, 182.92 28.23 C185.78 33.59, 187.4 40, 184.66 45.38 C181.92 50.75, 175.12 55.92, 166.49 60.5 C157.86 65.08, 145.34 70.17, 132.88 72.85 C120.41 75.54, 104.87 76.82, 91.68 76.59 C78.49 76.37, 65.9 74.27, 53.73 71.52 C41.57 68.76, 27.43 64.4, 18.69 60.08 C9.95 55.76, 3.98 50.83, 1.28 45.6 C-1.42 40.37, -0.91 33.95, 2.5 28.7 C5.91 23.46, 13.28 18.26, 21.74 14.11 C30.19 9.95, 41.25 6.01, 53.23 3.79 C65.21 1.56, 86.94 1.48, 93.62 0.78 C100.3 0.07, 93.25 -0.99, 93.32 -0.46" stroke="#1e1e1e" stroke-width="1" fill="none"></path></g><g transform="translate(155.05313248330577 642.0450028980997) rotate(0 40.90398406982422 10)"><text x="40.90398406982422" y="0" font-family="Virgil, Segoe UI Emoji" font-size="16px" fill="#1e1e1e" text-anchor="middle" style="white-space: pre;" direction="ltr" dominant-baseline="text-before-edge">Mantas, 3</text></g><g stroke-linecap="round"><g transform="translate(118.91692026974238 511.5053824034925) rotate(0 39.77552313627709 45.35946020322683)"><path d="M-0.03 0.96 C13.48 15.86, 67.73 74.42, 81.06 89.1 M-1.51 0.42 C11.91 15.49, 67.1 75.37, 80.53 90.3" stroke="#1e1e1e" stroke-width="1" fill="none"></path></g><g transform="translate(118.91692026974238 511.5053824034925) rotate(0 39.77552313627709 45.35946020322683)"><path d="M55.55 77.69 C60.79 80.03, 68.66 85.22, 79.49 91.19 M53.31 76.55 C62.16 81.37, 70.92 84.38, 81.23 89.4" stroke="#1e1e1e" stroke-width="1" fill="none"></path></g><g transform="translate(118.91692026974238 511.5053824034925) rotate(0 39.77552313627709 45.35946020322683)"><path d="M70.71 63.86 C71.39 70.33, 74.72 79.66, 79.49 91.19 M68.47 62.72 C72.69 71.72, 76.72 79.05, 81.23 89.4" stroke="#1e1e1e" stroke-width="1" fill="none"></path></g></g><mask></mask><g stroke-linecap="round" transform="translate(665.8228280419115 453.8196723081055) rotate(0 75 42.5)"><path d="M80.7 -0.84 C92.03 -0.95, 106.15 3.25, 116.06 6.82 C125.97 10.39, 134.56 15, 140.16 20.56 C145.76 26.12, 149.21 33.46, 149.68 40.18 C150.15 46.91, 147.89 54.88, 142.98 60.93 C138.06 66.97, 129.44 72.48, 120.2 76.44 C110.95 80.41, 98.95 83.65, 87.48 84.72 C76.01 85.78, 62.68 84.9, 51.37 82.82 C40.07 80.73, 27.7 76.91, 19.65 72.2 C11.59 67.48, 5.94 60.89, 3.05 54.53 C0.16 48.17, 0.01 40.38, 2.29 34.02 C4.58 27.66, 9.31 21.61, 16.74 16.39 C24.17 11.18, 35.16 5.31, 46.88 2.72 C58.6 0.13, 79.16 0.83, 87.07 0.86 C94.98 0.88, 94.45 2.12, 94.35 2.85 M110.53 4.86 C120.52 7.15, 129.91 13.71, 136.38 19.06 C142.85 24.4, 148.15 30.35, 149.37 36.9 C150.59 43.46, 147.77 52.19, 143.68 58.41 C139.59 64.64, 133.3 69.95, 124.83 74.25 C116.36 78.54, 104.32 82.58, 92.86 84.19 C81.39 85.8, 67.41 85.64, 56.04 83.91 C44.67 82.18, 33.01 78.31, 24.65 73.83 C16.28 69.36, 9.89 62.99, 5.86 57.04 C1.84 51.1, -0.82 44.78, 0.51 38.17 C1.84 31.56, 6.98 23.12, 13.83 17.37 C20.69 11.63, 31.64 6.61, 41.65 3.72 C51.66 0.83, 62.61 -0.12, 73.89 0.03 C85.17 0.18, 103.5 3.77, 109.33 4.6 C115.17 5.43, 109.58 4.12, 108.9 5.01" stroke="#1e1e1e" stroke-width="1" fill="none"></path></g><g transform="translate(694.1198518015533 483.7676341076773) rotate(0 46.66996765136719 12.5)"><text x="46.66996765136719" y="0" font-family="Virgil, Segoe UI Emoji" font-size="20px" fill="#1e1e1e" text-anchor="middle" style="white-space: pre;" direction="ltr" dominant-baseline="text-before-edge">Giedrė, 17</text></g><g stroke-linecap="round"><g transform="translate(579.3168479575133 330.88724037390546) rotate(0 61.05030082163282 52.93926446470934)"><path d="M0.15 -1.07 C20.78 16.45, 102.73 88.04, 123.33 105.99 M-1.23 0.98 C19.29 18.53, 101.64 89.16, 122.38 106.95" stroke="#1e1e1e" stroke-width="1" fill="none"></path></g><g transform="translate(579.3168479575133 330.88724037390546) rotate(0 61.05030082163282 52.93926446470934)"><path d="M92.52 96.38 C99.83 99.8, 108.23 101.69, 120.56 106.85 M93.55 96.79 C104.32 100.45, 114.63 105.02, 121.84 106.12" stroke="#1e1e1e" stroke-width="1" fill="none"></path></g><g transform="translate(579.3168479575133 330.88724037390546) rotate(0 61.05030082163282 52.93926446470934)"><path d="M105.88 80.8 C109.83 88.29, 114.76 94.22, 120.56 106.85 M106.91 81.21 C112.76 90.5, 118.15 100.82, 121.84 106.12" stroke="#1e1e1e" stroke-width="1" fill="none"></path></g></g><mask></mask><g stroke-linecap="round" transform="translate(478.3271834050943 544.2418458355388) rotate(0 75 42.5)"><path d="M75.7 -0.36 C86.85 -1.23, 100.26 1.02, 110.55 4.11 C120.85 7.21, 130.9 12.79, 137.47 18.22 C144.04 23.65, 148.6 30.22, 149.95 36.71 C151.31 43.2, 149.98 50.84, 145.6 57.14 C141.23 63.43, 132.49 69.87, 123.69 74.47 C114.89 79.07, 103.97 83.23, 92.81 84.72 C81.65 86.22, 68.1 85.1, 56.74 83.45 C45.38 81.8, 33.42 79.19, 24.66 74.81 C15.89 70.43, 8.02 63.44, 4.16 57.18 C0.31 50.91, -0.03 43.65, 1.54 37.23 C3.11 30.81, 6.96 23.92, 13.58 18.67 C20.19 13.42, 29.75 8.85, 41.24 5.74 C52.74 2.64, 74.61 0.65, 82.55 0.06 C90.49 -0.54, 88.87 1.29, 88.86 2.16 M48.51 3.2 C58.4 0.03, 72.45 -1.16, 84 -0.57 C95.56 0.03, 108.15 2.87, 117.84 6.79 C127.53 10.7, 136.77 16.73, 142.14 22.91 C147.51 29.09, 150.28 37.14, 150.06 43.87 C149.85 50.61, 146.42 57.91, 140.88 63.32 C135.34 68.73, 126.39 72.75, 116.84 76.36 C107.3 79.96, 95.02 83.74, 83.6 84.95 C72.18 86.16, 59.12 86.09, 48.34 83.61 C37.55 81.12, 26.74 75.49, 18.9 70.05 C11.07 64.62, 4.11 57.54, 1.32 51.02 C-1.47 44.5, -0.63 37.13, 2.15 30.95 C4.93 24.76, 10.28 18.42, 17.99 13.91 C25.7 9.41, 43.24 5.58, 48.41 3.93 C53.59 2.27, 48.42 3.61, 49.07 3.98" stroke="#1e1e1e" stroke-width="1" fill="none"></path></g><g transform="translate(514.8141943473532 574.1898076351106) rotate(0 38.479980468750014 12.5)"><text x="38.47998046875" y="0" font-family="Virgil, Segoe UI Emoji" font-size="20px" fill="#1e1e1e" text-anchor="middle" style="white-space: pre;" direction="ltr" dominant-baseline="text-before-edge">Ieva, 17</text></g><g stroke-linecap="round"><g transform="translate(541.182403385 339.4615744751161) rotate(0 2.413174449291276 97.68597044056952)"><path d="M0.94 -0.73 C1.66 31.68, 4.11 162.48, 4.85 195.12 M-0.02 1.49 C0.52 33.97, 3.24 163.71, 4.08 196.11" stroke="#1e1e1e" stroke-width="1" fill="none"></path></g><g transform="translate(541.182403385 339.4615744751161) rotate(0 2.413174449291276 97.68597044056952)"><path d="M-8.05 168.75 C-4.66 179.15, -0.93 189.01, 5.16 196.11 M-6.24 167.81 C-2.87 178.23, -0.25 187.01, 4.99 195.39" stroke="#1e1e1e" stroke-width="1" fill="none"></path></g><g transform="translate(541.182403385 339.4615744751161) rotate(0 2.413174449291276 97.68597044056952)"><path d="M12.47 168.27 C8.79 179, 5.45 189.02, 5.16 196.11 M14.27 167.33 C10.84 177.91, 6.66 186.85, 4.99 195.39" stroke="#1e1e1e" stroke-width="1" fill="none"></path></g></g><mask></mask></svg>