<svg version="1.1" xmlns="http://www.w3.org/2000/svg" viewBox="0 0 796.8930992516994 426.25" width="1593.7861985033987" height="852.5">
  <!-- svg-source:excalidraw -->
  
  <defs>
    <style class="style-fonts">
      @font-face {
        font-family: "Virgil";
        src: url("https://excalidraw.com/Virgil.woff2");
      }
      @font-face {
        font-family: "Cascadia";
        src: url("https://excalidraw.com/Cascadia.woff2");
      }
    </style>
    
  </defs>
  <rect x="0" y="0" width="796.8930992516994" height="426.25" fill="#ffffff"></rect><g transform="translate(730.9731621179103 391.25) rotate(0 27.95996856689453 12.5)"><text x="0" y="0" font-family="Virgil, Segoe UI Emoji" font-size="20px" fill="#1e1e1e" text-anchor="start" style="white-space: pre;" direction="ltr" dominant-baseline="text-before-edge">Vilnius</text></g><g transform="translate(514.6264748010158 358.8515625) rotate(0 35.249977111816406 12.5)"><text x="0" y="0" font-family="Virgil, Segoe UI Emoji" font-size="20px" fill="#1e1e1e" text-anchor="start" style="white-space: pre;" direction="ltr" dominant-baseline="text-before-edge">Kaunas</text></g><g transform="translate(519.5395912560939 157.99609375) rotate(0 49.95995330810547 12.5)"><text x="0" y="0" font-family="Virgil, Segoe UI Emoji" font-size="20px" fill="#1e1e1e" text-anchor="start" style="white-space: pre;" direction="ltr" dominant-baseline="text-before-edge">Panevezys</text></g><g transform="translate(372.2015661102336 139.32328249224025) rotate(0 34.299964904785156 12.5)"><text x="0" y="0" font-family="Virgil, Segoe UI Emoji" font-size="20px" fill="#1e1e1e" text-anchor="start" style="white-space: pre;" direction="ltr" dominant-baseline="text-before-edge">Siauliai</text></g><g stroke-linecap="round"><g transform="translate(748.1930099460759 382.6484375) rotate(0 -62.39228278780112 -94.55405383411265)"><path d="M0.11 -1.13 C-20.5 -32.88, -103.27 -158.48, -123.74 -190 M-1.29 0.89 C-22.08 -30.73, -104.59 -157, -124.9 -188.7" stroke="#1e1e1e" stroke-width="1" fill="none"></path></g><g transform="translate(748.1930099460759 382.6484375) rotate(0 -62.39228278780112 -94.55405383411265)"><path d="M-102.84 -171.27 C-108.79 -174.82, -116.25 -180.62, -125.07 -188.54 M-101.18 -169.98 C-107.44 -175.39, -113.15 -180.78, -124.79 -188.96" stroke="#1e1e1e" stroke-width="1" fill="none"></path></g><g transform="translate(748.1930099460759 382.6484375) rotate(0 -62.39228278780112 -94.55405383411265)"><path d="M-120.06 -160.11 C-121.01 -166.95, -123.43 -176.02, -125.07 -188.54 M-118.4 -158.82 C-120.06 -167.11, -121.23 -175.44, -124.79 -188.96" stroke="#1e1e1e" stroke-width="1" fill="none"></path></g></g><mask></mask><g stroke-linecap="round"><g transform="translate(723.4419121179103 409.16015625) rotate(0 -64.22864068336787 -15.446867160797126)"><path d="M1.07 0.74 C-20.69 -4.4, -107.75 -24.63, -129.53 -29.95 M0.18 0.09 C-21.28 -5.47, -105.98 -26.61, -127.21 -31.64" stroke="#1e1e1e" stroke-width="1" fill="none"></path></g><g transform="translate(723.4419121179103 409.16015625) rotate(0 -64.22864068336787 -15.446867160797126)"><path d="M-96.15 -36.14 C-107.48 -34.79, -121.02 -31.46, -128.67 -32.37 M-97.23 -34.74 C-104.17 -33.46, -110.4 -33.04, -127.2 -30.85" stroke="#1e1e1e" stroke-width="1" fill="none"></path></g><g transform="translate(723.4419121179103 409.16015625) rotate(0 -64.22864068336787 -15.446867160797126)"><path d="M-101.02 -16.21 C-110.62 -22.58, -122.29 -26.93, -128.67 -32.37 M-102.1 -14.81 C-107.94 -17.64, -113.17 -21.31, -127.2 -30.85" stroke="#1e1e1e" stroke-width="1" fill="none"></path></g></g><mask></mask><g transform="translate(395.61460346312515 10) rotate(0 36.65995788574219 12.5)"><text x="0" y="0" font-family="Virgil, Segoe UI Emoji" font-size="20px" fill="#1e1e1e" text-anchor="start" style="white-space: pre;" direction="ltr" dominant-baseline="text-before-edge">Joniskis</text></g><g stroke-linecap="round"><g transform="translate(508.7270683679103 168.44531759397526) rotate(0 -29.203968862757975 -6.283946243927852)"><path d="M-0.78 -1.14 C-10.75 -3.06, -49.63 -9.58, -59.41 -11.47 M1 0.87 C-8.62 -1.43, -47.51 -11.36, -57.2 -13.44" stroke="#1e1e1e" stroke-width="1" fill="none"></path></g><g transform="translate(508.7270683679103 168.44531759397526) rotate(0 -29.203968862757975 -6.283946243927852)"><path d="M-29.48 -18.47 C-36.86 -17.67, -48.37 -14.93, -58.39 -12.11 M-26.85 -16.4 C-34.51 -15.37, -42.07 -15.81, -56.31 -12.95" stroke="#1e1e1e" stroke-width="1" fill="none"></path></g><g transform="translate(508.7270683679103 168.44531759397526) rotate(0 -29.203968862757975 -6.283946243927852)"><path d="M-34.2 1.37 C-40.03 -4.34, -49.99 -8.15, -58.39 -12.11 M-31.57 3.44 C-38.2 -0.15, -44.66 -5.21, -56.31 -12.95" stroke="#1e1e1e" stroke-width="1" fill="none"></path></g></g><mask></mask><g stroke-linecap="round"><g transform="translate(423.39759018576973 125.55375124224025) rotate(0 2.98150778682205 -44.02633519362905)"><path d="M0.08 -0.24 C1.27 -14.87, 5.91 -73.4, 7.31 -87.81 M-1.34 -1.42 C-0.37 -15.84, 4.52 -71.75, 6.08 -86.26" stroke="#1e1e1e" stroke-width="1" fill="none"></path></g><g transform="translate(423.39759018576973 125.55375124224025) rotate(0 2.98150778682205 -44.02633519362905)"><path d="M13.2 -58.09 C11.31 -65.24, 10.81 -76.86, 7.98 -87.79 M14.35 -57.9 C11.19 -66.57, 8.18 -76, 5.2 -85.59" stroke="#1e1e1e" stroke-width="1" fill="none"></path></g><g transform="translate(423.39759018576973 125.55375124224025) rotate(0 2.98150778682205 -44.02633519362905)"><path d="M-7.23 -60.05 C-2.74 -66.6, 3.14 -77.61, 7.98 -87.79 M-6.08 -59.86 C-2.71 -67.77, 0.79 -76.58, 5.2 -85.59" stroke="#1e1e1e" stroke-width="1" fill="none"></path></g></g><mask></mask><g stroke-linecap="round"><g transform="translate(561.5122246179103 194.22265625) rotate(0 -6.596494346708056 78.6685612784326)"><path d="M0.2 -0.45 C-1.83 26.11, -10.2 132.5, -12.23 159.07 M-1.15 -1.73 C-3.38 24.52, -11.45 130.95, -13.4 157.42" stroke="#1e1e1e" stroke-width="1" fill="none"></path></g><g transform="translate(561.5122246179103 194.22265625) rotate(0 -6.596494346708056 78.6685612784326)"><path d="M-22.27 127.84 C-17.64 136.88, -15.36 147.11, -13.92 157.54 M-20.54 128.21 C-17.26 139.91, -14.51 150.06, -13.92 157.81" stroke="#1e1e1e" stroke-width="1" fill="none"></path></g><g transform="translate(561.5122246179103 194.22265625) rotate(0 -6.596494346708056 78.6685612784326)"><path d="M-1.8 129.38 C-3.3 137.99, -7.13 147.76, -13.92 157.54 M-0.08 129.75 C-4.7 140.93, -9.83 150.48, -13.92 157.81" stroke="#1e1e1e" stroke-width="1" fill="none"></path></g></g><mask></mask><g transform="translate(10 189.13799858879108) rotate(0 40.379966735839844 12.5)"><text x="0" y="0" font-family="Virgil, Segoe UI Emoji" font-size="20px" fill="#1e1e1e" text-anchor="start" style="white-space: pre;" direction="ltr" dominant-baseline="text-before-edge">Klaipeda</text></g><g transform="translate(42.99421691894531 135.92315483879108) rotate(0 39.129974365234375 12.5)"><text x="0" y="0" font-family="Virgil, Segoe UI Emoji" font-size="20px" fill="#1e1e1e" text-anchor="start" style="white-space: pre;" direction="ltr" dominant-baseline="text-before-edge">Garzdai</text></g><g stroke-linecap="round"><g transform="translate(507.0512871179103 372.7775293045297) rotate(0 -203.45735179760155 -82.97852506688548)"><path d="M0.37 1.05 C-67.32 -26.27, -339.47 -137.47, -407.29 -165.11 M-0.89 0.56 C-68.13 -27.03, -337.4 -139.13, -405.18 -167.01" stroke="#1e1e1e" stroke-width="1" fill="none"></path></g><g transform="translate(507.0512871179103 372.7775293045297) rotate(0 -203.45735179760155 -82.97852506688548)"><path d="M-373.45 -167.61 C-380.59 -166.54, -386.15 -165.63, -405.85 -168.31 M-376.14 -165.14 C-384.14 -166.26, -392.46 -167.06, -404.77 -167.68" stroke="#1e1e1e" stroke-width="1" fill="none"></path></g><g transform="translate(507.0512871179103 372.7775293045297) rotate(0 -203.45735179760155 -82.97852506688548)"><path d="M-381.3 -148.65 C-386.65 -151.47, -390.62 -154.41, -405.85 -168.31 M-383.99 -146.18 C-389.59 -152.91, -395.57 -159.36, -404.77 -167.68" stroke="#1e1e1e" stroke-width="1" fill="none"></path></g></g><mask></mask><g stroke-linecap="round"><g transform="translate(365.6380819183391 153.44834782419065) rotate(0 -35.78135943424538 -8.070837424914986)"><path d="M1.17 -0.47 C-10.57 -3.11, -59.64 -13.03, -71.56 -15.67 M0.33 -1.76 C-11.51 -4.27, -60.89 -12.11, -72.74 -14.42" stroke="#1e1e1e" stroke-width="1" fill="none"></path></g><g transform="translate(365.6380819183391 153.44834782419065) rotate(0 -35.78135943424538 -8.070837424914986)"><path d="M-43.98 -20.4 C-50.27 -17.04, -57.51 -18.49, -70.81 -14.8 M-43.18 -20.34 C-50.15 -19.44, -54.37 -18.07, -72.69 -14.35" stroke="#1e1e1e" stroke-width="1" fill="none"></path></g><g transform="translate(365.6380819183391 153.44834782419065) rotate(0 -35.78135943424538 -8.070837424914986)"><path d="M-47.52 -0.19 C-53.1 -1.09, -59.6 -6.75, -70.81 -14.8 M-46.72 -0.13 C-53.02 -3.33, -56.52 -6.08, -72.69 -14.35" stroke="#1e1e1e" stroke-width="1" fill="none"></path></g></g><mask></mask><g stroke-linecap="round"><g transform="translate(509.05802558277674 187.51473583415378) rotate(0 -204.36836614551459 4.785922419020164)"><path d="M0.15 -0.38 C-67.82 1.51, -340.09 9.45, -408.27 11.2 M-1.23 -1.63 C-69.27 -0.04, -340.81 7.49, -408.89 9.68" stroke="#1e1e1e" stroke-width="1" fill="none"></path></g><g transform="translate(509.05802558277674 187.51473583415378) rotate(0 -204.36836614551459 4.785922419020164)"><path d="M-381.65 -0.37 C-386.48 1.49, -395.59 5.28, -407.07 10.09 M-381.81 -1.94 C-391.98 2.12, -401.15 7.08, -409.3 9.27" stroke="#1e1e1e" stroke-width="1" fill="none"></path></g><g transform="translate(509.05802558277674 187.51473583415378) rotate(0 -204.36836614551459 4.785922419020164)"><path d="M-381.05 20.14 C-386.01 16.59, -395.29 14.97, -407.07 10.09 M-381.21 18.57 C-391.79 15.19, -401.18 12.71, -409.3 9.27" stroke="#1e1e1e" stroke-width="1" fill="none"></path></g></g><mask></mask><g stroke-linecap="round"><g transform="translate(74.9966348375379 179.0294015519758) rotate(0 2.0691645805005123 -7.267558354171719)"><path d="M0 0 C0.69 -2.42, 3.45 -12.11, 4.14 -14.54 M0 0 C0.69 -2.42, 3.45 -12.11, 4.14 -14.54" stroke="#1e1e1e" stroke-width="1" fill="none"></path></g><g transform="translate(74.9966348375379 179.0294015519758) rotate(0 2.0691645805005123 -7.267558354171719)"><path d="M4.68 -7 C4.53 -9.02, 4.39 -11.04, 4.14 -14.54 M4.68 -7 C4.55 -8.85, 4.41 -10.71, 4.14 -14.54" stroke="#1e1e1e" stroke-width="1" fill="none"></path></g><g transform="translate(74.9966348375379 179.0294015519758) rotate(0 2.0691645805005123 -7.267558354171719)"><path d="M-0.29 -8.41 C0.9 -10.05, 2.08 -11.7, 4.14 -14.54 M-0.29 -8.41 C0.8 -9.92, 1.89 -11.43, 4.14 -14.54" stroke="#1e1e1e" stroke-width="1" fill="none"></path></g></g><mask></mask><g transform="translate(222.35438454527895 123.49640151549289) rotate(0 32.619964599609375 12.5)"><text x="0" y="0" font-family="Virgil, Segoe UI Emoji" font-size="20px" fill="#1e1e1e" text-anchor="start" style="white-space: pre;" direction="ltr" dominant-baseline="text-before-edge">Telsiai</text></g><g stroke-linecap="round"><g transform="translate(213.87636877314998 136.60788028789935) rotate(0 -40.036845604910525 4.704837786797356)"><path d="M0 0 C-13.35 1.57, -66.73 7.84, -80.07 9.41 M0 0 C-13.35 1.57, -66.73 7.84, -80.07 9.41" stroke="#1e1e1e" stroke-width="1" fill="none"></path></g><g transform="translate(213.87636877314998 136.60788028789935) rotate(0 -40.036845604910525 4.704837786797356)"><path d="M-53.27 -4.07 C-61 -0.18, -68.73 3.7, -80.07 9.41 M-53.27 -4.07 C-60.65 -0.36, -68.02 3.35, -80.07 9.41" stroke="#1e1e1e" stroke-width="1" fill="none"></path></g><g transform="translate(213.87636877314998 136.60788028789935) rotate(0 -40.036845604910525 4.704837786797356)"><path d="M-50.88 16.31 C-59.29 14.32, -67.71 12.33, -80.07 9.41 M-50.88 16.31 C-58.91 14.41, -66.95 12.51, -80.07 9.41" stroke="#1e1e1e" stroke-width="1" fill="none"></path></g></g><mask></mask><g stroke-linecap="round"><g transform="translate(386.77745130298473 26.850170456880562) rotate(0 -58.42352092430335 42.47593615466593)"><path d="M0 0 C-19.47 14.16, -97.37 70.79, -116.85 84.95 M0 0 C-19.47 14.16, -97.37 70.79, -116.85 84.95" stroke="#1e1e1e" stroke-width="1" fill="none"></path></g><g transform="translate(386.77745130298473 26.850170456880562) rotate(0 -58.42352092430335 42.47593615466593)"><path d="M-100.08 60.08 C-104.29 66.32, -108.5 72.56, -116.85 84.95 M-100.08 60.08 C-105.76 68.5, -111.43 76.92, -116.85 84.95" stroke="#1e1e1e" stroke-width="1" fill="none"></path></g><g transform="translate(386.77745130298473 26.850170456880562) rotate(0 -58.42352092430335 42.47593615466593)"><path d="M-88.01 76.67 C-95.25 78.75, -102.48 80.83, -116.85 84.95 M-88.01 76.67 C-97.77 79.48, -107.53 82.28, -116.85 84.95" stroke="#1e1e1e" stroke-width="1" fill="none"></path></g></g><mask></mask></svg>